<svg width="14" height="13" viewBox="0 0 14 13" fill="none" xmlns="http://www.w3.org/2000/svg">
<path d="M8.33325 3.00002V1.66668H5.66659V3.00002H8.33325ZM1.66659 4.33335V11.6667H12.3333V4.33335H1.66659ZM12.3333 3.00002C13.0733 3.00002 13.6666 3.59335 13.6666 4.33335V11.6667C13.6666 12.4067 13.0733 13 12.3333 13H1.66659C0.926585 13 0.333252 12.4067 0.333252 11.6667L0.339919 4.33335C0.339919 3.59335 0.926585 3.00002 1.66659 3.00002H4.33325V1.66668C4.33325 0.926684 4.92659 0.333351 5.66659 0.333351H8.33325C9.07325 0.333351 9.66659 0.926684 9.66659 1.66668V3.00002H12.3333Z" fill="#495057"/>
</svg>
